<?xml version="1.0" standalone="no"?>
<!DOCTYPE svg PUBLIC "-//W3C//DTD SVG 20010904//EN"
 "http://www.w3.org/TR/2001/REC-SVG-20010904/DTD/svg10.dtd">
<svg version="1.0" xmlns="http://www.w3.org/2000/svg"
 width="840.000000pt" height="480.000000pt" viewBox="0 0 840.000000 480.000000"
 preserveAspectRatio="xMidYMid meet">
<metadata>
Created by potrace 1.16, written by Peter Selinger 2001-2019
</metadata>
<g transform="translate(0.000000,480.000000) scale(0.100000,-0.100000)"
fill="#000000" stroke="none">
<path d="M4805 4394 c-86 -12 -158 -28 -233 -50 -407 -122 -736 -463 -847
-877 -60 -223 -57 -434 11 -701 l17 -68 -777 -777 -776 -776 0 -373 0 -372
370 0 370 0 0 220 0 220 223 2 222 3 3 223 2 222 223 0 222 0 331 331 331 331
104 -26 c561 -142 1107 73 1410 554 256 406 249 946 -17 1350 -182 277 -456
466 -784 541 -82 19 -333 33 -405 23z m698 -481 c89 -42 168 -121 210 -210 31
-65 32 -73 32 -193 0 -120 -1 -127 -32 -190 -41 -84 -80 -129 -146 -173 -89
-60 -166 -80 -279 -75 -84 4 -105 9 -170 40 -96 45 -161 111 -207 208 -31 65
-36 86 -39 167 -4 77 0 106 18 164 43 131 139 231 270 279 45 17 75 20 165 17
100 -2 116 -5 178 -34z"/>
</g>
</svg>
